<svg id="Layer_1" data-name="Layer 1" xmlns="http://www.w3.org/2000/svg" viewBox="0 0 100 100"><defs><style>.cls-1{fill:#fff;stroke:#fff;}</style></defs><title>cloud_active</title><path class="cls-1" d="M76.21,83.25H21.28A19.66,19.66,0,0,1,1.64,63.62v-1.1A19.66,19.66,0,0,1,21.28,42.89h3.3c1.34-11.81,11.2-21.06,22.95-21.06s21.6,9.26,22.95,21.06h5.74A19.67,19.67,0,0,1,95.52,59h0.32v4.66A19.66,19.66,0,0,1,76.21,83.25ZM21.28,47.61A14.94,14.94,0,0,0,6.36,62.53v1.1A14.94,14.94,0,0,0,21.28,78.54H76.21A14.94,14.94,0,0,0,91.13,63.62v-1.1A14.94,14.94,0,0,0,76.21,47.61H65.95l0-2.31C65.72,35,57.47,26.55,47.52,26.55S29.32,35,29.14,45.29l0,2.31H21.28Z"/><path class="cls-1" d="M85.84,50.56l-1.5-.92a14.63,14.63,0,0,0-7.62-2.13H66.21l0-2.57c-0.17-9.77-7.65-17.88-17-18.46l-3.89-.24,1.7-3.51C51,14.27,60.37,8.81,70.73,8.81c14.27,0,25.88,10.32,25.88,23a22,22,0,0,1-9.36,17.71ZM71.21,42.28h5.5a19.89,19.89,0,0,1,8.71,2,16.57,16.57,0,0,0,6-12.47C91.38,22,82.12,14,70.73,14A21.66,21.66,0,0,0,53.59,21.9,24,24,0,0,1,71.21,42.28Z"/></svg>