<svg id="Layer_1" data-name="Layer 1" xmlns="http://www.w3.org/2000/svg" viewBox="0 0 121 13.04"><title>logo</title><g id="Web-Responsive-Bit-Grid"><g id="Landing"><g id="Group-2"><path d="M12.76,11.46V13.8H3V1.2h9.52V3.54H5.9V6.28h5.85V8.54H5.9v2.92Z" transform="translate(-3 -0.98)"/><path d="M23.4,13.8,21,10.29H18.28V13.8H15.37V1.2h5.46c3.37,0,5.47,1.75,5.47,4.57a4.1,4.1,0,0,1-2.59,4l2.83,4.05ZM20.66,3.57H18.28V8h2.38c1.78,0,2.68-.83,2.68-2.2S22.44,3.57,20.66,3.57Z" transform="translate(-3 -0.98)"/><path d="M28.69,1.2H31.6V13.8H28.69Z" transform="translate(-3 -0.98)"/><path d="M39.47,8.85l-1.69,1.76V13.8h-2.9V1.2h2.9V7.09L43.36,1.2H46.6L41.38,6.82l5.53,7H43.5Z" transform="translate(-3 -0.98)"/><path d="M57,11.1H51.19l-1.12,2.7h-3L52.7,1.2h2.88l5.63,12.6H58.16Zm-.92-2.21-2-4.82-2,4.82Z" transform="translate(-3 -0.98)"/><path d="M67.21,12.56l1-2.2a7.41,7.41,0,0,0,4.16,1.31c1.73,0,2.43-.58,2.43-1.35,0-2.36-7.33-.74-7.33-5.42C67.46,2.76,69.19,1,72.77,1A8.46,8.46,0,0,1,77.15,2.1l-.9,2.21a7.12,7.12,0,0,0-3.49-1c-1.73,0-2.39.65-2.39,1.44,0,2.32,7.33.72,7.33,5.35,0,2.11-1.75,3.91-5.35,3.91A9,9,0,0,1,67.21,12.56Z" transform="translate(-3 -0.98)"/><path d="M79.45,12.18a1.75,1.75,0,0,1,3.49,0,1.75,1.75,0,1,1-3.49,0Z" transform="translate(-3 -0.98)"/><path d="M90.71,1.2h2.92V11.43H100V13.8H90.71Z" transform="translate(-3 -0.98)"/><path d="M111.63,11.46V13.8h-9.76V1.2h9.53V3.54h-6.63V6.28h5.85V8.54h-5.85v2.92Z" transform="translate(-3 -0.98)"/><path d="M124,11.46V13.8h-9.76V1.2h9.53V3.54h-6.63V6.28H123V8.54h-5.85v2.92Z" transform="translate(-3 -0.98)"/></g></g></g></svg>