<svg id="Layer_1" data-name="Layer 1" xmlns="http://www.w3.org/2000/svg" viewBox="0 0 45.3 45.15"><defs><style>.cls-1{stroke:#000;stroke-miterlimit:10;}</style></defs><title>rain</title><path class="cls-1" d="M35.7,29.15H10.3a9.45,9.45,0,0,1,0-18.9h2.3a10.5,10.5,0,0,1,20.88,0H35.7A9.45,9.45,0,1,1,35.7,29.15ZM10.3,12.55a7.15,7.15,0,1,0,0,14.3H35.7a7.15,7.15,0,0,0,0-14.3H31.24V11.4a8.2,8.2,0,1,0-16.4,0v1.15H10.3Z" transform="translate(-0.35 -0.35)"/><path class="cls-1" d="M11,32V44a1,1,0,0,0,2,0V32a1,1,0,0,0-2,0h0Z" transform="translate(-0.35 -0.35)"/><path class="cls-1" d="M17.5,32V42a1,1,0,0,0,2,0V32a1,1,0,1,0-2,0h0Z" transform="translate(-0.35 -0.35)"/><path class="cls-1" d="M24,32v7a1,1,0,0,0,2,0V32a1,1,0,1,0-2,0h0Z" transform="translate(-0.35 -0.35)"/><path class="cls-1" d="M30.5,32v4a1,1,0,1,0,2,0V32a1,1,0,0,0-2,0h0Z" transform="translate(-0.35 -0.35)"/></svg>