<svg id="Layer_1" data-name="Layer 1" xmlns="http://www.w3.org/2000/svg" viewBox="0 0 45.3 45.13"><defs><style>.cls-1{fill:#fff;stroke:#fff;stroke-miterlimit:10;}</style></defs><title>rain_active</title><path class="cls-1" d="M35.35,28.8H10A9.45,9.45,0,0,1,10,9.9h2.3a10.5,10.5,0,0,1,20.88,0h2.22a9.45,9.45,0,0,1,0,18.9h0ZM10,12.2a7.15,7.15,0,0,0,0,14.3h25.4a7.15,7.15,0,0,0,0-14.3H30.89V11a8.2,8.2,0,0,0-16.4,0h0V12.2H10Z" transform="translate(0 -0.02)"/><path class="cls-1" d="M10.65,31.65v12a1,1,0,0,0,2,0v-12a1,1,0,0,0-2,0h0Z" transform="translate(0 -0.02)"/><path class="cls-1" d="M17.15,31.65v10a1,1,0,0,0,2,0v-10a1,1,0,0,0-2,0h0Z" transform="translate(0 -0.02)"/><path class="cls-1" d="M23.65,31.65v7a1,1,0,0,0,2,0v-7a1,1,0,0,0-2,0h0Z" transform="translate(0 -0.02)"/><path class="cls-1" d="M30.15,31.65v4a1,1,0,1,0,2,0v-4a1,1,0,0,0-2,0h0Z" transform="translate(0 -0.02)"/></svg>