<svg id="Layer_1" data-name="Layer 1" xmlns="http://www.w3.org/2000/svg" viewBox="0 0 100 100"><defs><style>.cls-1{stroke:#000;}</style></defs><title>snow</title><path class="cls-1" d="M77.33,61.11H23.67A19,19,0,0,1,4.73,42.16v-0.5A19,19,0,0,1,23.67,22.72H27a22.42,22.42,0,0,1,44.57,0h5.73A19,19,0,0,1,96,38.33l0.29-.25v3.58H96l0.29,0.25v0.25A19,19,0,0,1,77.33,61.11ZM23.67,27.27a14.41,14.41,0,0,0-14.4,14.4v0.5a14.41,14.41,0,0,0,14.4,14.4H77.33a14.41,14.41,0,0,0,14.4-14.4V41.91L92,41.67H91.73a14.41,14.41,0,0,0-14.4-14.4H67.25l0-2.23a17.89,17.89,0,0,0-35.78,0l0,2.23H23.67Z"/><path class="cls-1" d="M27.58,70.78A3.38,3.38,0,1,1,31,67.4,3.42,3.42,0,0,1,27.58,70.78Zm0-4.21a0.83,0.83,0,1,0,.9.83A0.87,0.87,0,0,0,27.58,66.57Z"/><path class="cls-1" d="M48.44,70.78a3.38,3.38,0,1,1,3.45-3.37A3.42,3.42,0,0,1,48.44,70.78Zm0-4.21a0.83,0.83,0,1,0,.9.83A0.87,0.87,0,0,0,48.44,66.57Z"/><path class="cls-1" d="M68.46,70.78a3.38,3.38,0,1,1,3.45-3.37A3.41,3.41,0,0,1,68.46,70.78Zm0-4.21a0.83,0.83,0,1,0,.9.83A0.87,0.87,0,0,0,68.46,66.57Z"/><path class="cls-1" d="M38,84.23a3.38,3.38,0,1,1,3.45-3.37A3.42,3.42,0,0,1,38,84.23ZM38,80a0.83,0.83,0,1,0,.9.83A0.87,0.87,0,0,0,38,80Z"/><path class="cls-1" d="M59.76,84.23a3.38,3.38,0,1,1,3.45-3.37A3.41,3.41,0,0,1,59.76,84.23Zm0-4.21a0.83,0.83,0,1,0,.9.83A0.87,0.87,0,0,0,59.76,80Z"/><path class="cls-1" d="M27.58,96.85A3.38,3.38,0,1,1,31,93.48,3.42,3.42,0,0,1,27.58,96.85Zm0-4.21a0.83,0.83,0,1,0,.9.83A0.87,0.87,0,0,0,27.58,92.65Z"/><path class="cls-1" d="M48.44,96.85a3.38,3.38,0,1,1,3.45-3.37A3.42,3.42,0,0,1,48.44,96.85Zm0-4.21a0.83,0.83,0,1,0,.9.83A0.87,0.87,0,0,0,48.44,92.65Z"/><path class="cls-1" d="M68.46,96.85a3.38,3.38,0,1,1,3.45-3.37A3.41,3.41,0,0,1,68.46,96.85Zm0-4.21a0.83,0.83,0,1,0,.9.83A0.87,0.87,0,0,0,68.46,92.65Z"/></svg>