<svg id="Layer_1" data-name="Layer 1" xmlns="http://www.w3.org/2000/svg" viewBox="0 0 50 50"><defs><style>.cls-1{stroke:#000;stroke-miterlimit:10;}</style></defs><title>sun</title><path class="cls-1" d="M9,26.6H3a1.1,1.1,0,1,1,0-2.2H9A1.1,1.1,0,1,1,9,26.6Z"/><path class="cls-1" d="M12.24,15.34A1.1,1.1,0,0,1,11.46,15L7.22,10.78A1.1,1.1,0,0,1,8.78,9.22L13,13.46A1.1,1.1,0,0,1,12.24,15.34Z"/><path class="cls-1" d="M42.24,42.34A1.1,1.1,0,0,1,41.46,42l-4.24-4.24a1.1,1.1,0,0,1,1.56-1.55L43,40.47A1.1,1.1,0,0,1,42.24,42.34Z"/><path class="cls-1" d="M8,42.34a1.1,1.1,0,0,1-.78-1.88l4.24-4.24A1.1,1.1,0,1,1,13,37.78L8.78,42A1.1,1.1,0,0,1,8,42.34Z"/><path class="cls-1" d="M38.2,14.74a1.1,1.1,0,0,1-.78-1.88l4.24-4.24a1.1,1.1,0,0,1,1.56,1.56L39,14.42A1.1,1.1,0,0,1,38.2,14.74Z"/><path class="cls-1" d="M47,26.6H41a1.1,1.1,0,0,1,0-2.2h6A1.1,1.1,0,0,1,47,26.6Z"/><path class="cls-1" d="M25.11,39.24a13.6,13.6,0,1,0-13.6-13.6,13.6,13.6,0,0,0,13.6,13.6h0Zm0-3A10.58,10.58,0,1,1,35.72,25.64,10.59,10.59,0,0,1,25.11,36.21h0Z"/><path class="cls-1" d="M25.1,48.6A1.1,1.1,0,0,1,24,47.5v-6a1.1,1.1,0,0,1,2.2,0v6A1.1,1.1,0,0,1,25.1,48.6Z"/><path class="cls-1" d="M25.1,10.6A1.1,1.1,0,0,1,24,9.5v-6a1.1,1.1,0,1,1,2.2,0v6A1.1,1.1,0,0,1,25.1,10.6Z"/></svg>